<?xml version="1.0" encoding="UTF-8" standalone="no"?>
<!-- Created with Inkscape (http://www.inkscape.org/) -->

<svg
   width="49.246807mm"
   height="66.429062mm"
   viewBox="0 0 49.246807 66.429062"
   version="1.1"
   id="svg1"
   xml:space="preserve"
   inkscape:version="1.3.2 (091e20e, 2023-11-25, custom)"
   sodipodi:docname="0.svg"
   xmlns:inkscape="http://www.inkscape.org/namespaces/inkscape"
   xmlns:sodipodi="http://sodipodi.sourceforge.net/DTD/sodipodi-0.dtd"
   xmlns="http://www.w3.org/2000/svg"
   xmlns:svg="http://www.w3.org/2000/svg"><sodipodi:namedview
     id="namedview1"
     pagecolor="#ffffff"
     bordercolor="#000000"
     borderopacity="0.25"
     inkscape:showpageshadow="2"
     inkscape:pageopacity="0.0"
     inkscape:pagecheckerboard="0"
     inkscape:deskcolor="#d1d1d1"
     inkscape:document-units="mm"
     inkscape:zoom="0.73139029"
     inkscape:cx="88.871839"
     inkscape:cy="204.40523"
     inkscape:window-width="1920"
     inkscape:window-height="1017"
     inkscape:window-x="-8"
     inkscape:window-y="-8"
     inkscape:window-maximized="1"
     inkscape:current-layer="layer1" /><defs
     id="defs1" /><g
     inkscape:label="Capa 1"
     inkscape:groupmode="layer"
     id="layer1"
     transform="translate(-81.28987,-94.591108)"><path
       style="fill:#1d1d1d;stroke:none"
       d="m 95.542873,96.707778 2.38125,-2.11667 c -1.12743,0.38047 -2.00725,0.95642 -2.38125,2.11667 m 18.520827,-2.11667 2.64583,1.85209 -2.64583,-1.85209 M 85.753283,120.78485 c -2.99601,0.009 -6.40327,3.30182 -3.12498,5.91271 0.97828,0.77912 2.21238,0.7011 3.38957,0.70188 0.11561,13.96552 14.731207,28.59095 28.574997,20.67118 7.82639,-4.47733 9.25763,-11.88448 11.96668,-19.59733 0.7213,-2.05361 3.90934,-1.21345 3.97609,-4.24885 0.0666,-3.02629 -3.09688,-2.45172 -3.68885,-4.51343 -0.58115,-2.02405 -0.56578,-4.26862 -1.1108,-6.33448 -1.57242,-5.96011 -4.89495,-11.77098 -10.08479,-15.250902 -1.61291,-1.0815 -3.41075,-1.94173 -5.29167,-2.43494 C 95.814983,91.876858 85.754683,108.11555 85.753283,120.78485 M 104.00953,96.522608 c 8.2384,-1.17706 14.97289,4.596942 18.4551,11.562252 4.60227,9.20569 4.38623,21.08571 -0.40545,30.16249 -2.79969,5.3034 -7.65963,9.97129 -13.81631,10.77136 -8.15979,1.06038 -14.736607,-4.65729 -18.190517,-11.56511 -4.67995,-9.35991 -4.40258,-21.56147 0.69147,-30.69165 2.75521,-4.93823 7.46452,-9.410492 13.265707,-10.239342 m -0.52916,9.445592 c 1.0285,2.13419 4.39573,2.47767 5.55625,0.26458 4.65242,1.10713 7.61118,-5.31877 2.64563,-6.815882 -2.42667,-0.73164 -5.06197,1.312852 -4.67104,3.905462 0.13538,0.89787 1.23983,1.98792 1.06874,2.84999 -0.12191,0.61431 -0.90873,0.77575 -1.42479,0.82417 -0.84563,0.0793 -1.98556,-0.11865 -2.30122,-1.04384 -0.32625,-0.95626 0.62793,-2.1375 0.58837,-3.15948 -0.10683,-2.75993 -3.01485,-4.413992 -5.426607,-3.064562 -2.41498,1.351242 -2.31145,4.857432 0,6.277122 1.266837,0.77809 2.670307,0.43418 3.964667,-0.0376 m -2.9094,-5.980902 c 3.86928,-0.8794 5.15783,4.932642 1.32169,5.829212 -3.618417,0.84569 -5.043207,-4.98338 -1.32169,-5.829212 m 9.2596,0.0104 c 3.77388,-1.01775 5.36682,4.661982 1.58709,5.753872 -3.70697,1.07088 -5.22432,-4.77297 -1.58709,-5.753872 m -8.64734,1.782472 c -0.64199,0.36478 -0.062,1.33836 0.55019,0.96769 0.5829,-0.35295 0.0741,-1.32243 -0.55019,-0.96769 m 9.06484,-0.0237 c -0.53946,0.40585 -0.087,1.34457 0.5604,0.99137 0.72316,-0.39457 0.10418,-1.49135 -0.5604,-0.99137 m -5.97395,7.79132 c -8.746437,2.00777 -9.686587,15.27458 -6.413697,21.82036 1.82315,3.6463 5.517107,6.83325 9.853277,5.90841 8.90971,-1.90029 10.13772,-14.28217 7.28829,-21.25425 -1.74791,-4.27683 -5.93478,-7.57479 -10.72787,-6.47452 m 1.05833,1.00464 c 3.64326,-0.59104 6.59202,2.20757 8.13349,5.20531 2.97255,5.78082 2.52115,18.83203 -5.75224,20.28594 -4.14105,0.72772 -7.44203,-2.10025 -9.028697,-5.73387 -2.6915,-6.16376 -1.67141,-18.40781 6.647447,-19.75738 m -19.843747,10.76155 c -0.051,1.53363 -2.31236,2.97176 -0.52917,3.96875 l -0.52916,-1.32292 1.05833,-0.26458 c 0.0853,0.67497 0.29866,1.41949 0.21497,2.10115 -0.16326,1.32986 -1.69153,1.14113 -2.53967,0.54223 -1.68906,-1.1927 -1.27289,-3.79141 0.47629,-4.67593 0.58372,-0.29518 1.21121,-0.31909 1.84841,-0.3487 m 41.274997,5.55625 c 2e-4,-1.85194 1.40711,-4.57906 1.5875,-1.32292 h 0.26458 c 0.25801,-1.40641 -0.24437,-2.17792 -1.5875,-2.64583 v -1.5875 c 3.86185,0.58179 3.66576,5.3519 -0.26458,5.55625 m -29.897917,24.34167 v 0.26458 l 1.85209,0.26458 c -0.50821,1.92926 -3.86592,2.5319 -3.01433,4.74801 0.59033,1.53624 2.6001,1.2509 3.27891,2.92491 -3.18673,1.13119 -4.69368,0.31309 -5.82083,-2.91041 -0.61455,2.70113 3.8126,6.21237 5.92189,3.59331 1.806177,-2.2427 -2.45222,-2.30178 -2.72403,-3.62843 -0.33447,-1.63251 5.572117,-3.76926 1.57525,-5.14182 -0.33755,-0.11591 -0.72031,-0.0956 -1.06895,-0.11473 m -3.70416,5.02708 h 0.26458 c 0.20624,-2.01351 1.39389,-3.57333 3.175,-4.49792 -2.22459,-0.58185 -3.36232,2.81108 -3.43958,4.49792 m 11.906247,-3.43958 v 6.87917 h 2.11666 v -1.85209 c 1.22146,0.72007 2.14994,1.22848 2.91042,-0.26458 l -1.85208,-0.79375 c 1.46374,-2.9159 -0.38266,-3.91112 -3.175,-3.96875 m 7.14783,0.20027 c -3.05764,1.12206 -1.86933,7.83486 1.56892,6.51823 2.939,-1.12546 2.18085,-7.89427 -1.56892,-6.51823 m -11.91033,6.6789 3.96875,-0.26459 v -1.85208 l -1.85209,0.26458 1.05834,-1.05833 v -1.05833 h -1.32292 l 1.32292,-0.79375 v -1.85209 c -4.259337,4.7e-4 -3.175,3.16156 -3.175,6.61459 m 6.61458,-5.29167 h 0.26458 l -0.52916,1.32292 0.26458,-1.32292 m 6.08542,2.91042 h -0.26459 l -0.26458,-1.85209 c 1.0504,0.35203 0.94939,0.92725 0.52917,1.85209 z"
       id="path1" /></g></svg>
