<?xml version="1.0" encoding="UTF-8" standalone="no"?>
<!-- Created with Inkscape (http://www.inkscape.org/) -->

<svg
   width="29.933352mm"
   height="36.236778mm"
   viewBox="0 0 29.933351 36.236778"
   version="1.1"
   id="svg1"
   xml:space="preserve"
   inkscape:version="1.3.2 (091e20e, 2023-11-25, custom)"
   sodipodi:docname="2.svg"
   xmlns:inkscape="http://www.inkscape.org/namespaces/inkscape"
   xmlns:sodipodi="http://sodipodi.sourceforge.net/DTD/sodipodi-0.dtd"
   xmlns="http://www.w3.org/2000/svg"
   xmlns:svg="http://www.w3.org/2000/svg"><sodipodi:namedview
     id="namedview1"
     pagecolor="#ffffff"
     bordercolor="#000000"
     borderopacity="0.25"
     inkscape:showpageshadow="2"
     inkscape:pageopacity="0.0"
     inkscape:pagecheckerboard="0"
     inkscape:deskcolor="#d1d1d1"
     inkscape:document-units="mm"
     inkscape:zoom="0.73139029"
     inkscape:cx="47.854067"
     inkscape:cy="160.65294"
     inkscape:window-width="1920"
     inkscape:window-height="1017"
     inkscape:window-x="-8"
     inkscape:window-y="-8"
     inkscape:window-maximized="1"
     inkscape:current-layer="layer1" /><defs
     id="defs1" /><g
     inkscape:label="Capa 1"
     inkscape:groupmode="layer"
     id="layer1"
     transform="translate(-92.107438,-106.37805)"><path
       style="fill:#1f1f1f;stroke:none"
       d="m 102.69077,118.53775 c 0.47346,-2.26481 1.43281,-4.66601 3.96875,-5.18735 3.02764,-0.62243 5.77935,2.64269 4.52303,5.45193 -1.53669,3.43617 -5.37444,5.56162 -8.2272,7.7852 -5.192962,4.04766 -10.280852,9.08468 -10.847912,16.0273 h 29.633332 c 0,-1.7558 0.83045,-6.38598 -0.27193,-7.77785 -0.67119,-0.84745 -3.00031,-0.42423 -3.9614,-0.42423 h -11.1125 c 3.17745,-2.41887 6.45782,-4.82579 9.525,-7.38711 5.37336,-4.48713 8.37565,-13.5553 1.32291,-18.24971 -4.47073,-2.97579 -12.25375,-2.92084 -17.19791,-1.25657 -3.383532,1.13894 -5.530732,3.66311 -6.501482,7.04964 -0.21764,0.75922 -0.97661,2.49898 -0.21416,3.12763 0.66508,0.54837 1.94863,0.28085 2.74689,0.35686 2.19436,0.20897 4.407472,0.48279 6.614582,0.48426 m 17.99167,16.93333 v 6.08542 H 93.165768 c 1.59058,-10.81067 12.926332,-13.10483 18.111102,-21.16667 2.33802,-3.63542 -0.13275,-8.87216 -4.88193,-7.79725 -3.10206,0.70211 -2.67534,3.46386 -4.64695,4.87846 -1.39637,1.00188 -6.029662,-0.25621 -7.788472,-0.25621 0.18956,-8.89815 9.642572,-10.46325 16.668752,-9.60034 4.24632,0.52151 8.61135,2.26861 9.61258,6.95451 1.4036,6.569 -3.43225,10.96777 -8.28966,14.44061 -1.70251,1.21722 -3.52711,2.35132 -5.0228,3.82584 -0.41682,0.41093 -1.39354,1.20128 -1.1651,1.89373 0.3583,1.08612 2.70196,0.7419 3.54206,0.7419 z"
       id="path1" /></g></svg>
