<?xml version="1.0" encoding="UTF-8" standalone="no"?>
<!-- Created with Inkscape (http://www.inkscape.org/) -->

<svg
   width="23.357613mm"
   height="35.164989mm"
   viewBox="0 0 23.357612 35.164989"
   version="1.1"
   id="svg1"
   xml:space="preserve"
   inkscape:version="1.3.2 (091e20e, 2023-11-25, custom)"
   sodipodi:docname="3.svg"
   xmlns:inkscape="http://www.inkscape.org/namespaces/inkscape"
   xmlns:sodipodi="http://sodipodi.sourceforge.net/DTD/sodipodi-0.dtd"
   xmlns="http://www.w3.org/2000/svg"
   xmlns:svg="http://www.w3.org/2000/svg"><sodipodi:namedview
     id="namedview1"
     pagecolor="#ffffff"
     bordercolor="#000000"
     borderopacity="0.25"
     inkscape:showpageshadow="2"
     inkscape:pageopacity="0.0"
     inkscape:pagecheckerboard="0"
     inkscape:deskcolor="#d1d1d1"
     inkscape:document-units="mm"
     inkscape:zoom="0.73139029"
     inkscape:cx="34.181476"
     inkscape:cy="125.1042"
     inkscape:window-width="1920"
     inkscape:window-height="1017"
     inkscape:window-x="-8"
     inkscape:window-y="-8"
     inkscape:window-maximized="1"
     inkscape:current-layer="layer1" /><defs
     id="defs1" /><g
     inkscape:label="Capa 1"
     inkscape:groupmode="layer"
     id="layer1"
     transform="translate(-95.82685,-115.84355)"><path
       style="fill:#06057e;stroke:none"
       d="m 96.356017,126.86809 h 6.085413 c 0.0434,-0.9942 0.17769,-1.99029 0.58572,-2.91042 3.5419,-7.98717 13.62906,3.65567 4.97053,6.04316 -1.13724,0.31358 -2.27058,0.30671 -3.43958,0.30684 v 4.7625 c 1.35408,1.5e-4 2.64969,0.0453 3.96875,0.39136 9.34946,2.45279 -1.22292,15.81747 -5.59973,7.28156 -0.51329,-1.00103 -0.70184,-2.06428 -0.75027,-3.175 h -6.35 c 2.42e-4,2.19288 0.214083,4.38966 1.297806,6.35 3.546884,6.4159 14.911994,6.6691 19.480564,1.3123 3.98993,-4.67834 3.50122,-12.73574 -2.52212,-15.33522 4.29165,-2.64623 5.63993,-9.05778 1.80309,-12.91579 -4.62969,-4.65523 -14.92115,-4.18671 -18.232368,1.80329 -1.032907,1.86853 -1.296417,3.98833 -1.297805,6.08542 z"
       id="path1" /></g></svg>
