<?xml version="1.0" encoding="UTF-8" standalone="no"?>
<!-- Created with Inkscape (http://www.inkscape.org/) -->

<svg
   width="37.068031mm"
   height="45.942303mm"
   viewBox="0 0 37.06803 45.942302"
   version="1.1"
   id="svg1"
   xml:space="preserve"
   inkscape:version="1.3.2 (091e20e, 2023-11-25, custom)"
   sodipodi:docname="4.svg"
   xmlns:inkscape="http://www.inkscape.org/namespaces/inkscape"
   xmlns:sodipodi="http://sodipodi.sourceforge.net/DTD/sodipodi-0.dtd"
   xmlns="http://www.w3.org/2000/svg"
   xmlns:svg="http://www.w3.org/2000/svg"><sodipodi:namedview
     id="namedview1"
     pagecolor="#ffffff"
     bordercolor="#000000"
     borderopacity="0.25"
     inkscape:showpageshadow="2"
     inkscape:pageopacity="0.0"
     inkscape:pagecheckerboard="0"
     inkscape:deskcolor="#d1d1d1"
     inkscape:document-units="mm"
     inkscape:zoom="0.73139029"
     inkscape:cx="75.199248"
     inkscape:cy="159.28568"
     inkscape:window-width="1920"
     inkscape:window-height="1017"
     inkscape:window-x="-8"
     inkscape:window-y="-8"
     inkscape:window-maximized="1"
     inkscape:current-layer="layer1" /><defs
     id="defs1" /><g
     inkscape:label="Capa 1"
     inkscape:groupmode="layer"
     id="layer1"
     transform="translate(-84.8875,-106.87638)"><path
       style="fill:#0567ae;stroke:none"
       d="m 109.5091,127.65441 c -3.08833,0 -6.16059,0.26478 -9.26042,0.26458 -0.933877,-6e-5 -2.554587,0.26702 -3.166627,-0.6439 -0.6593,-0.98127 0.0978,-3.05753 0.30909,-4.1186 0.73677,-3.69979 3.771887,-8.48078 3.542067,-12.17083 -0.1682,-2.70058 -4.005317,-2.9582 -5.976187,-2.50578 -3.06964,0.70464 -3.19265,3.07368 -3.9316,5.68078 -1.49018,5.25755 -3.41899,10.36955 -4.95195,15.61042 -0.54837,1.87475 -2.3147,5.7122 -0.0968,7.0333 1.60446,0.9557 3.75637,0.63961 5.54073,0.63961 3.91878,0 8.32619,-0.65562 12.170827,-0.1523 1.18788,0.15551 3.71373,-0.3126 4.60286,0.57653 0.83107,0.83107 0.31145,2.53652 0.20354,3.54452 -0.35634,3.32836 -3.06719,11.25157 1.80819,11.37321 2.17449,0.0542 6.91302,0.23594 8.53485,-1.50502 1.2793,-1.37328 0.46098,-5.95582 0.46098,-7.75152 0,-7.08496 -0.30008,-14.10319 0.64145,-21.16667 0.48259,-3.62042 0.86528,-7.26327 1.58097,-10.84791 0.21574,-1.08058 0.95582,-3.13964 -0.18986,-3.92241 -1.91901,-1.31112 -8.16674,-0.79031 -9.39741,1.30516 -1.03741,1.7664 -0.93533,4.84697 -1.12162,6.85058 -0.36958,3.9749 -0.98909,7.92727 -1.30311,11.90625 z"
       id="path1" /></g></svg>
