<?xml version="1.0" encoding="UTF-8" standalone="no"?>
<!-- Created with Inkscape (http://www.inkscape.org/) -->

<svg
   width="54.179996mm"
   height="50.929775mm"
   viewBox="0 0 54.179995 50.929774"
   version="1.1"
   id="svg1"
   xml:space="preserve"
   inkscape:version="1.3.2 (091e20e, 2023-11-25, custom)"
   sodipodi:docname="5.svg"
   xmlns:inkscape="http://www.inkscape.org/namespaces/inkscape"
   xmlns:sodipodi="http://sodipodi.sourceforge.net/DTD/sodipodi-0.dtd"
   xmlns="http://www.w3.org/2000/svg"
   xmlns:svg="http://www.w3.org/2000/svg"><sodipodi:namedview
     id="namedview1"
     pagecolor="#ffffff"
     bordercolor="#000000"
     borderopacity="0.25"
     inkscape:showpageshadow="2"
     inkscape:pageopacity="0.0"
     inkscape:pagecheckerboard="0"
     inkscape:deskcolor="#d1d1d1"
     inkscape:document-units="mm"
     inkscape:zoom="0.73139029"
     inkscape:cx="49.221326"
     inkscape:cy="172.95827"
     inkscape:window-width="1920"
     inkscape:window-height="1017"
     inkscape:window-x="-8"
     inkscape:window-y="-8"
     inkscape:window-maximized="1"
     inkscape:current-layer="layer1" /><defs
     id="defs1" /><g
     inkscape:label="Capa 1"
     inkscape:groupmode="layer"
     id="layer1"
     transform="translate(-91.748385,-103.29685)"><path
       style="fill:#95bf0d;stroke:none"
       d="m 93.022619,103.63444 c -1.79474,1.08159 -1.11774,4.86017 -1.11774,6.60723 v 19.57916 17.19792 c 0,1.79963 -0.6011,5.0095 0.55284,6.53047 0.6759,0.89088 2.17255,0.61328 3.15132,0.61328 h 8.731251 29.63334 7.9375 c 0.85349,0 2.26977,0.2616 3.00229,-0.27193 0.84364,-0.61449 0.70036,-1.99467 0.70188,-2.90307 v -8.20208 -29.10417 c 0,-2.23167 1.05244,-8.28119 -0.70188,-9.89452 -0.76984,-0.70796 -2.3076,-0.42423 -3.26687,-0.42423 h -8.73125 -28.83959 -7.672921 c -0.99893,0 -2.48806,-0.26569 -3.38017,0.27194 m 37.246841,7.13639 v 6.35 h -15.08125 l -1.32292,7.9375 c 2.54837,-1.57121 4.82507,-2.83529 7.93751,-2.62215 9.55602,0.6544 13.20405,12.13072 8.44278,19.55549 -6.18963,9.65216 -24.81181,7.1812 -24.84695,-5.55625 h 7.40833 c 0.17918,1.19543 0.5737,2.24444 1.37947,3.17091 6.43629,7.40045 15.68636,-5.99337 7.35178,-10.74665 -0.93025,-0.53053 -2.09985,-0.85533 -3.175,-0.79069 -2.40835,0.14479 -3.31269,1.8846 -5.31535,2.65155 -1.80848,0.69258 -4.66341,0.15863 -6.5909,0.15863 l 2.5805,-14.55209 1.28229,-5.28431 5.39763,-0.27194 z"
       id="path1" /></g></svg>
