<?xml version="1.0" encoding="UTF-8" standalone="no"?>
<!-- Created with Inkscape (http://www.inkscape.org/) -->

<svg
   width="29.720427mm"
   height="43.472286mm"
   viewBox="0 0 29.720426 43.472285"
   version="1.1"
   id="svg1"
   xml:space="preserve"
   inkscape:version="1.3.2 (091e20e, 2023-11-25, custom)"
   sodipodi:docname="6.svg"
   xmlns:inkscape="http://www.inkscape.org/namespaces/inkscape"
   xmlns:sodipodi="http://sodipodi.sourceforge.net/DTD/sodipodi-0.dtd"
   xmlns="http://www.w3.org/2000/svg"
   xmlns:svg="http://www.w3.org/2000/svg"><sodipodi:namedview
     id="namedview1"
     pagecolor="#ffffff"
     bordercolor="#000000"
     borderopacity="0.25"
     inkscape:showpageshadow="2"
     inkscape:pageopacity="0.0"
     inkscape:pagecheckerboard="0"
     inkscape:deskcolor="#d1d1d1"
     inkscape:document-units="mm"
     inkscape:zoom="0.73139029"
     inkscape:cx="-35.548735"
     inkscape:cy="156.55116"
     inkscape:window-width="1920"
     inkscape:window-height="1017"
     inkscape:window-x="-8"
     inkscape:window-y="-8"
     inkscape:window-maximized="1"
     inkscape:current-layer="layer1" /><defs
     id="defs1" /><g
     inkscape:label="Capa 1"
     inkscape:groupmode="layer"
     id="layer1"
     transform="translate(-114.10278,-107.64867)"><path
       style="fill:#fad912;stroke:none"
       d="m 125.83404,125.37439 c 1.93851,-3.15256 4.2154,-5.77098 7.9375,-6.70318 2.26177,-0.56646 6.14245,0.25291 7.85727,-1.55933 2.00763,-2.12169 1.61406,-8.14842 -1.50747,-9.0485 -4.37363,-1.26113 -10.81434,0.54868 -14.55188,2.81303 -8.26867,5.00947 -12.27221,15.67777 -11.33197,25.08131 0.95122,9.51332 7.45089,16.29985 17.41738,15.0047 9.88089,-1.28404 16.29202,-13.2972 9.08424,-21.27916 -4.38572,-4.85678 -9.06514,-4.25345 -14.90507,-4.30887 m 2.64583,-11.37708 -3.175,2.38125 c 0.4329,-1.47505 1.69206,-2.21708 3.175,-2.38125 m -3.43958,2.64583 -1.32292,1.32292 c 0.19261,-0.88651 0.42256,-1.16747 1.32292,-1.32292 m -1.94028,1.76389 -0.0882,0.17639 0.0882,-0.17639 m -0.44097,0.35278 -0.79375,1.32291 0.79375,-1.32291 m -1.5875,2.64583 -0.79375,2.38125 h -0.26458 l 1.05833,-2.38125 m -1.85208,4.23333 -0.52917,2.11667 0.52917,-2.11667 m 16.66875,6.08542 c 6.5198,2.91207 2.10075,15.72943 -4.7625,13.75833 v -0.52916 c 3.5366,-1.30456 6.86697,-4.64759 6.27038,-8.73125 -0.21974,-1.50414 -1.71693,-3.06491 -1.50788,-4.49792 m -7.67292,2.46822 c 5.11483,-0.89852 7.94087,6.2303 2.38125,7.23419 -1.46341,0.26425 -3.46948,0.17799 -4.62163,-0.87827 -2.48717,-2.28017 -0.72525,-5.83495 2.24038,-6.35592 z"
       id="path1" /></g></svg>
