<?xml version="1.0" encoding="UTF-8" standalone="no"?>
<!-- Created with Inkscape (http://www.inkscape.org/) -->

<svg
   width="24.34166mm"
   height="24.819208mm"
   viewBox="0 0 24.341659 24.819207"
   version="1.1"
   id="svg1"
   xml:space="preserve"
   inkscape:version="1.3.2 (091e20e, 2023-11-25, custom)"
   sodipodi:docname="7.svg"
   xmlns:inkscape="http://www.inkscape.org/namespaces/inkscape"
   xmlns:sodipodi="http://sodipodi.sourceforge.net/DTD/sodipodi-0.dtd"
   xmlns="http://www.w3.org/2000/svg"
   xmlns:svg="http://www.w3.org/2000/svg"><sodipodi:namedview
     id="namedview1"
     pagecolor="#ffffff"
     bordercolor="#000000"
     borderopacity="0.25"
     inkscape:showpageshadow="2"
     inkscape:pageopacity="0.0"
     inkscape:pagecheckerboard="0"
     inkscape:deskcolor="#d1d1d1"
     inkscape:document-units="mm"
     inkscape:zoom="0.73139029"
     inkscape:cx="-36.915995"
     inkscape:cy="137.40954"
     inkscape:window-width="1920"
     inkscape:window-height="1017"
     inkscape:window-x="-8"
     inkscape:window-y="-8"
     inkscape:window-maximized="1"
     inkscape:current-layer="layer1" /><defs
     id="defs1" /><g
     inkscape:label="Capa 1"
     inkscape:groupmode="layer"
     id="layer1"
     transform="translate(-114.59334,-112.66115)"><path
       style="fill:#244359;stroke:none"
       d="m 114.59334,112.66115 v 24.34166 h 5.55625 v -0.26458 c -1.76942,-1.63972 0.5279,-4.14057 1.47521,-5.82083 2.50517,-4.44348 6.64759,-9.84477 7.7852,-14.81667 -2.52043,-0.31686 -5.14492,-0.0207 -7.67291,0.21967 -0.80944,0.077 -2.40612,0.2974 -2.88756,-0.56816 -1.0045,-1.80598 2.52885,-1.85212 3.41672,-1.95722 4.08414,-0.48347 8.32351,-0.86929 12.43542,-0.86929 l -4.91113,8.99583 -8.31804,14.81667 c 5.06855,1.49819 12.16625,0.26458 17.4625,0.26458 v -24.34166 h -24.34166 m 4.7625,2.64583 v 0.26458 c 3.78037,0 8.57326,-1.52498 12.17083,-0.26458 v 1.05833 l -1.5875,1.85209 -2.11667,3.175 0.26458,0.79375 c -1.75943,0.89951 -2.4598,3.0695 -3.27319,4.7625 -1.34901,2.80783 -3.06444,5.24099 -4.13514,8.20208 l 0.26459,0.26458 3.81645,-6.08541 5.77673,-10.58334 2.31306,-4.7625 c -3.83985,0.0106 -10.05221,-0.47061 -13.49374,1.32292 m 6.08541,11.1125 -0.26458,0.26458 0.26458,-0.26458 m -1.85208,3.43958 -0.26459,0.26459 0.26459,-0.26459 m -2.11667,3.96875 -0.26458,0.26459 0.26458,-0.26459 m -0.79375,1.85209 0.26459,0.26458 z"
       id="path1" /></g></svg>
