<?xml version="1.0" encoding="UTF-8" standalone="no"?>
<!-- Created with Inkscape (http://www.inkscape.org/) -->

<svg
   width="34.924999mm"
   height="49.212505mm"
   viewBox="0 0 34.924998 49.212503"
   version="1.1"
   id="svg1"
   xml:space="preserve"
   inkscape:version="1.3.2 (091e20e, 2023-11-25, custom)"
   sodipodi:docname="8.svg"
   xmlns:inkscape="http://www.inkscape.org/namespaces/inkscape"
   xmlns:sodipodi="http://sodipodi.sourceforge.net/DTD/sodipodi-0.dtd"
   xmlns="http://www.w3.org/2000/svg"
   xmlns:svg="http://www.w3.org/2000/svg"><sodipodi:namedview
     id="namedview1"
     pagecolor="#ffffff"
     bordercolor="#000000"
     borderopacity="0.25"
     inkscape:showpageshadow="2"
     inkscape:pageopacity="0.0"
     inkscape:pagecheckerboard="0"
     inkscape:deskcolor="#d1d1d1"
     inkscape:document-units="mm"
     inkscape:zoom="0.73139029"
     inkscape:cx="-57.42488"
     inkscape:cy="192.0999"
     inkscape:window-width="1920"
     inkscape:window-height="1017"
     inkscape:window-x="-8"
     inkscape:window-y="-8"
     inkscape:window-maximized="1"
     inkscape:current-layer="layer1" /><defs
     id="defs1" /><g
     inkscape:label="Capa 1"
     inkscape:groupmode="layer"
     id="layer1"
     transform="translate(-119.92134,-98.184016)"><path
       style="fill:#1b2514;stroke:none"
       d="m 119.92134,98.184016 v 49.212504 h 34.925 V 98.184016 h -34.925 m 25.4,1.05833 c 0.15756,0.69792 0.57107,1.405134 0.57714,2.127084 0.0176,2.09344 -2.82448,3.4498 -4.38788,1.95191 -1.56055,-1.49516 -0.32372,-4.327484 1.69407,-4.534464 0.72804,-0.0747 1.43658,0.24334 2.11667,0.45547 m -15.08125,-0.10473 c 3.50903,-0.43086 3.75108,5.194664 0.26458,5.491124 -3.52889,0.30007 -3.44828,-5.100224 -0.26458,-5.491124 m 8.73125,0.36931 c 0.69126,2.220074 -0.80277,6.697384 -3.84095,4.301534 -1.51334,-1.19339 -0.97453,-3.76783 0.69351,-4.526714 1.07086,-0.48719 2.08207,0.006 3.14744,0.22518 m 9.525,5.820844 c 1.14361,0.12973 2.54743,-0.29562 2.91041,1.05833 2.21691,-0.0128 -0.3961,5.1737 -0.79375,3.175 h -0.26458 l -0.26458,1.32292 c -3.16873,-0.93529 -2.72955,-2.42948 -2.11667,-5.02709 h 0.52917 v -0.26458 c -0.36946,-0.18473 -0.36946,-0.0799 0,-0.26458 m -25.12501,0.8848 c 3.68337,-0.75286 4.32008,4.84072 1.03751,5.40395 -3.41789,0.58646 -4.36017,-4.72481 -1.03751,-5.40395 m 25.3014,-0.003 0.17639,0.0882 -0.17639,-0.0882 m 0.79375,0 0.17639,0.0882 -0.17639,-0.0882 m 0.88194,-0.0882 0.26458,0.26458 -0.26458,-0.26458 m -1.4993,0.97014 0.0882,0.17638 -0.0882,-0.17638 m 0.70555,-0.17639 0.26458,0.26458 -0.26458,-0.26458 m 0.79375,0 0.26458,0.26458 -0.26458,-0.26458 m 0.79375,0 0.26458,0.26458 -0.26458,-0.26458 m -3.43958,0.26458 0.26458,0.26458 -0.26458,-0.26458 m -1.32292,0.52917 -0.26458,0.26458 0.26458,-0.26458 m 3.175,0 0.26458,0.26458 -0.26458,-0.26458 m 0.88195,0.17639 0.0882,0.17638 -0.0882,-0.17638 m 0.88194,-0.0882 0.17639,0.0882 -0.17639,-0.0882 m -3.43958,0.26458 0.17639,0.0882 -0.17639,-0.0882 m 0.79375,0 0.17639,0.0882 -0.17639,-0.0882 m -2.29306,0.44098 -0.26458,0.26458 0.26458,-0.26458 m 3.175,0.26458 0.26458,0.26458 -0.26458,-0.26458 m 0.88195,0.17639 0.0882,0.17639 -0.0882,-0.17639 m 0.70555,-0.17639 0.26458,0.26458 -0.26458,-0.26458 m -3.43958,0.26458 0.26458,0.26459 -0.26458,-0.26459 m 0.97014,0.88195 0.17639,0.0882 -0.17639,-0.0882 m 0.88194,-0.0882 0.26458,0.26459 -0.26458,-0.26459 m 0.79375,3.175 h 0.26458 l 0.26459,-0.52916 c 0.96751,0.87636 2.27229,3.2988 0.26458,3.70416 v 1.05834 c -0.95053,0 -2.21068,0.20685 -3.02842,-0.37932 -1.17605,-0.84301 -1.33957,-2.58075 0.118,-3.06027 v -0.26458 l -0.52916,-0.26458 c 0.72447,-0.65328 2.33323,-1.72341 2.64583,-0.26459 m -0.79375,-0.52916 0.26458,0.26458 -0.26458,-0.26458 m -26.11801,0.39504 c 3.08378,-0.76637 4.28541,4.39406 1.23656,5.27533 -3.75002,1.08395 -4.66583,-4.42311 -1.23656,-5.27533 m 25.23607,0.75149 0.17639,0.0882 -0.17639,-0.0882 m 0.79375,0 0.17639,0.0882 -0.17639,-0.0882 m 0.88194,-0.0882 0.26458,0.26458 -0.26458,-0.26458 m -3.96875,0.79375 -0.26458,0.26458 0.26458,-0.26458 m 1.41111,0.17639 0.0882,0.17639 -0.0882,-0.17639 m 2.55764,-0.17639 0.26458,0.26458 -0.26458,-0.26458 m 0.79375,0 0.26458,0.26458 -0.26458,-0.26458 m -3.26319,1.14653 0.17639,0.0882 -0.17639,-0.0882 m 0.61736,-0.0882 0.26458,0.26459 -0.26458,-0.26459 m 0.97014,0.0882 0.17639,0.0882 -0.17639,-0.0882 m 0.88194,-0.0882 0.26458,0.26459 -0.26458,-0.26459 m 0.0882,0.97014 0.0882,0.17639 -0.0882,-0.17639 m -1.76389,0.17639 0.17639,0.0882 -0.17639,-0.0882 m 0.88194,-0.0882 0.26458,0.26458 -0.26458,-0.26458 m -12.19472,3.13743 c 3.09752,0.55853 1.69778,5.76742 -1.27535,5.20776 -3.50202,-0.65921 -2.25034,-5.84349 1.27535,-5.20776 m 6.90305,-0.22702 0.52917,0.26459 0.26458,0.26458 0.26459,0.52917 -0.26459,1.05833 0.52917,-0.26458 v 0.26458 l -0.52917,0.52917 v 0.26458 l 0.52917,0.26458 v 0.26459 l -0.52917,1.05833 -2.91041,0.79375 -0.26459,-0.26458 0.26459,-0.52917 h -1.32292 l 0.26458,-0.79375 c -2.38729,-2.08869 1.65869,-3.59359 3.175,-3.70417 m -11.90624,4.7625 c -2.31147,1.0563 -3.13048,0.97791 -5.02709,-0.79375 0.17945,-2.22969 3.05251,-5.83229 4.93501,-2.61704 0.66557,1.13677 0.26729,2.21273 0.0921,3.41079 m 9.26041,-3.96875 0.26458,0.26459 -0.26458,-0.26459 m 0.79375,0 0.26458,0.26459 -0.26458,-0.26459 m 0.97014,0.0882 0.17639,0.0882 -0.17639,-0.0882 m 0.79375,0 0.17639,0.0882 -0.17639,-0.0882 m 0.17639,0.88194 0.0882,0.17639 -0.0882,-0.17639 m -3.52778,0.0882 0.26458,0.26458 -0.26458,-0.26458 m 1.85208,0 0.26459,0.26458 -0.26459,-0.26458 m -2.38125,0.52916 -0.26458,0.26459 0.26458,-0.26459 m 0.52917,0.26459 0.26458,0.26458 -0.26458,-0.26458 m 0.79375,0 0.26458,0.26458 -0.26458,-0.26458 m 0.79375,0 0.26458,0.26458 -0.26458,-0.26458 m 1.23472,0.0882 0.17639,0.0882 -0.17639,-0.0882 m 0.61736,-0.0882 0.26459,0.26458 -0.26459,-0.26458 m -2.64583,0.79375 0.26458,0.26458 -0.26458,-0.26458 m 1.85208,0 0.26459,0.26458 -0.26459,-0.26458 m 0.88195,0.17639 0.0882,0.17639 -0.0882,-0.17639 m -4.05695,0.35277 -0.26458,0.26459 0.26458,-0.26459 m 2.11667,0.52917 0.26458,0.26458 -0.26458,-0.26458 m 1.05833,0 0.26459,0.26458 -0.26459,-0.26458 m 5.82084,0.79375 -0.26459,0.26458 0.26459,-0.26458 m 0.79375,0 -0.26459,0.26458 0.26459,-0.26458 m 0.79375,0.0882 c 0.20462,0 0.0424,0.13171 -0.0882,0.0882 l 0.0882,-0.0882 m -1.5875,0.70555 -0.26459,0.26458 0.26459,-0.26458 m 0.79375,0.0882 c 0.20462,0 0.0424,0.13171 -0.0882,0.0882 l 0.0882,-0.0882 m 0.79375,0 c 0.20462,0 0.0424,0.13171 -0.0882,0.0882 l 0.0882,-0.0882 m 1.05833,-0.0882 -0.26458,0.26458 0.26458,-0.26458 m 0.26458,1.5875 -0.79375,3.96875 -4.49791,-0.79375 c 0.10675,-1.57057 -0.0844,-3.36532 1.85208,-3.70417 0.97591,-1.11103 2.39007,0.0496 3.43958,0.52917 m -28.83958,-0.67514 c 3.20296,-0.51163 3.90858,4.69645 0.78987,5.34659 -3.75318,0.78241 -4.29272,-4.78704 -0.78987,-5.34659 m 24.34167,0.93972 0.26458,0.26459 -0.26458,-0.26459 m -1.32292,0.79375 -0.26458,0.26459 0.26458,-0.26459 m 0,0.79375 -0.26458,0.26459 0.26458,-0.26459 m 0,1.14653 0.0882,0.0882 c -0.13058,0.0435 -0.29282,-0.0882 -0.0882,-0.0882 m 0.26458,1.76389 -0.26458,0.26458 0.26458,-0.26458 m 0.79375,0 -0.26458,0.26458 0.26458,-0.26458 m 0.79375,0.0882 c 0.20463,0 0.0424,0.13173 -0.0882,0.0882 l 0.0882,-0.0882 m 1.05834,-0.0882 -0.26459,0.26458 0.26459,-0.26458 m 0.79375,0 -0.26459,0.26458 0.26459,-0.26458 m -0.79008,1.20042 c 3.03838,-0.34999 3.46204,4.53226 0.52468,5.05873 -3.29283,0.59019 -3.78489,-4.68318 -0.52468,-5.05873 m -26.43832,0.23723 c 3.50717,-0.93466 4.48598,4.71841 1.10998,5.54421 -3.33195,0.81502 -4.17057,-4.72856 -1.10998,-5.54421 m 25.6409,0.41443 0.26458,0.26459 -0.26458,-0.26459 m 1.85208,0 0.26458,0.26459 -0.26458,-0.26459 m -2.64583,1.05834 0.26458,0.26458 -0.26458,-0.26458 m 0.79375,0 0.26458,0.26458 -0.26458,-0.26458 m -0.79375,0.79375 0.26458,0.26458 -0.26458,-0.26458 m 0.79375,0 0.26458,0.26458 -0.26458,-0.26458 m -0.79375,1.05833 0.26458,0.26459 -0.26458,-0.26459 m 0.79375,0.79375 0.26458,0.26459 -0.26458,-0.26459 m -18.25625,2.11667 2.01234,2.38533 -0.16026,2.90634 v 0.26458 h -4.23333 l -0.79375,-0.79375 0.79375,-3.96875 2.38125,-0.79375 m 5.02708,0.0882 c 0.20462,0 0.0424,0.13172 -0.0882,0.0882 l 0.0882,-0.0882 m 1.5875,0 c 0.20462,0 0.0424,0.13172 -0.0882,0.0882 l 0.0882,-0.0882 m 1.85208,-0.0882 -0.26458,0.26458 0.26458,-0.26458 m 5.29167,0 -0.26458,0.26458 0.26458,-0.26458 m 1.05833,0.79375 0.52917,2.91042 c -0.96945,0 -1.53036,3.17122 -3.175,1.5875 -0.81267,0.69428 -1.62909,-0.38247 -2.38125,-0.79375 l -0.26458,-0.79375 1.32291,-2.91042 0.79375,0.26458 c 0.8412,-1.08987 2.01819,-0.30409 3.175,-0.26458 m -5.82083,1.32292 c -0.27971,0.87688 -1.12933,4.62605 -2.64583,3.175 h -0.26458 l -2.38125,0.26458 v -1.85208 h -1.32292 v -0.26459 h 1.05833 l 0.26459,-0.26458 v -2.11667 l 3.17499,-0.52916 2.11667,1.5875 m 3.175,-1.32292 0.26458,0.26458 -0.26458,-0.26458 m -15.08125,0.52917 -0.26458,0.26458 0.26458,-0.26458 m 12.96458,0 -0.26458,0.26458 0.26458,-0.26458 m -7.14374,0.79375 0.26458,0.52916 h -0.52917 l 0.26459,-0.52916 m 6.34999,1.32291 -0.26458,0.26459 0.26458,-0.26459 m -6.34999,0.52917 0.26458,0.52917 h -0.52917 l 0.26459,-0.52917 m 6.08541,0 0.26458,0.52917 -0.26458,-0.52917 m -12.7,0.26458 -0.26458,0.26459 0.26458,-0.26459 m 6.61459,0.79375 -0.26459,0.26459 0.26459,-0.26459 m 11.81805,0.17639 -0.0882,0.17639 0.0882,-0.17639 m -17.63889,0.0882 -0.26458,0.26458 0.26458,-0.26458 m 11.37708,0 -0.26458,0.26458 0.26458,-0.26458 m -3.70416,0.79375 -0.26458,0.26458 0.26458,-0.26458 m 7.40833,0 -0.26458,0.26458 0.26458,-0.26458 m 0.52917,0.0882 0.0882,0.0882 c -0.13057,0.0435 -0.29282,-0.0882 -0.0882,-0.0882 m 1.05833,-0.0882 -0.26458,0.26458 0.26458,-0.26458 m -7.9375,1.05833 -0.26458,0.26458 0.26458,-0.26458 m 6.08542,0 -0.26459,0.26458 z"
       id="path1" /></g></svg>
