<?xml version="1.0" encoding="UTF-8" standalone="no"?>
<!-- Created with Inkscape (http://www.inkscape.org/) -->

<svg
   width="53.084797mm"
   height="46.579685mm"
   viewBox="0 0 53.084795 46.579683"
   version="1.1"
   id="svg1"
   xml:space="preserve"
   inkscape:version="1.3.2 (091e20e, 2023-11-25, custom)"
   sodipodi:docname="9.svg"
   xmlns:inkscape="http://www.inkscape.org/namespaces/inkscape"
   xmlns:sodipodi="http://sodipodi.sourceforge.net/DTD/sodipodi-0.dtd"
   xmlns="http://www.w3.org/2000/svg"
   xmlns:svg="http://www.w3.org/2000/svg"><sodipodi:namedview
     id="namedview1"
     pagecolor="#ffffff"
     bordercolor="#000000"
     borderopacity="0.25"
     inkscape:showpageshadow="2"
     inkscape:pageopacity="0.0"
     inkscape:pagecheckerboard="0"
     inkscape:deskcolor="#d1d1d1"
     inkscape:document-units="mm"
     inkscape:zoom="0.73139029"
     inkscape:cx="-19.141627"
     inkscape:cy="189.36538"
     inkscape:window-width="1920"
     inkscape:window-height="1017"
     inkscape:window-x="-8"
     inkscape:window-y="-8"
     inkscape:window-maximized="1"
     inkscape:current-layer="layer1" /><defs
     id="defs1" /><g
     inkscape:label="Capa 1"
     inkscape:groupmode="layer"
     id="layer1"
     transform="translate(-109.66534,-99.080295)"><path
       style="fill:#3e242c;stroke:none"
       d="m 121.64819,114.8809 c -3.03707,1.54352 -5.82886,3.65168 -8.53493,5.70487 -0.99951,0.75836 -2.36656,1.38831 -3.05105,2.47875 -1.36845,2.18006 1.05811,5.01863 3.38112,4.88711 1.64078,-0.0929 2.94445,-1.8887 4.23611,-2.75198 0.2098,0.95275 1.18415,2.99518 2.39474,1.65528 1.54678,-1.712 -0.23504,-5.17492 0.79368,-7.21886 0.44969,-0.89347 1.36723,-1.14795 2.25985,-0.75531 2.5941,1.14106 4.41669,3.07292 7.25173,3.93764 v 0.26459 c -1.73195,0.065 -4.35372,-0.24202 -5.65383,1.14533 -2.65009,2.82791 -0.92815,8.35883 2.74341,8.90883 -1.30297,1.83318 -3.17738,2.82053 -2.91042,5.29167 -1.71639,0.13679 -3.6904,0.35371 -4.94595,1.67948 -1.57979,1.66814 -0.59466,4.16817 1.53854,4.68233 2.55868,0.61671 5.25914,-0.98576 7.63879,-1.69591 1.06472,-0.31774 2.44067,-0.50795 3.20752,-1.39682 1.6793,-1.94648 0.0318,-5.16386 -1.61806,-6.44408 l 0.52916,-2.38125 5.55625,-1.32292 1.32292,3.70417 c -1.68874,1.59055 -2.60295,4.87482 -0.53897,6.63951 1.35851,1.1615 3.42699,1.45195 5.03689,2.14975 1.7925,0.77695 3.7333,1.99677 5.7723,1.50243 2.3918,-0.57989 2.84997,-3.30662 1.31416,-5.01975 -1.39119,-1.55181 -3.54016,-1.87425 -5.49896,-2.09694 -0.13521,-1.81586 -0.96779,-2.58714 -2.64584,-3.175 -0.25725,-1.45835 -1.06445,-3.22572 -0.76455,-4.70486 0.396,-1.95308 2.57527,-3.47828 3.65203,-5.08561 2.20637,-3.29357 1.90289,-8.33779 6.90211,-6.6137 0.11171,1.96537 0.63929,5.17339 1.80136,6.80631 1.51807,2.13315 2.47757,-1.15109 2.43197,-2.30839 1.38873,0.62793 3.07019,1.97621 4.67103,1.70465 2.25578,-0.38267 3.74737,-3.7462 2.18269,-5.54502 -0.91299,-1.04962 -2.70666,-1.15345 -3.94386,-1.6202 -3.4626,-1.30631 -7.12984,-2.72356 -10.84736,-3.0061 -0.0468,-5.07311 -1.14225,-10.37924 -5.5801,-13.47321 -9.67878,-6.747849 -22.50877,2.22823 -20.08448,13.47321 m 16.40416,13.75834 -0.79375,1.05833 v -0.26458 l 0.79375,-0.26459 v -0.26458 l -1.05833,1.05833 c -3.89171,-0.2484 -7.11958,1.81008 -10.84792,-0.26458 l 0.52917,-2.38125 h -1.05833 v -1.32292 l 0.79375,-1.05833 c 3.6055,-0.26505 6.50126,-1.34368 9.26041,-3.70417 -2.76637,0.35225 -5.68997,0.47016 -8.19835,-0.95354 -9.74239,-5.52956 -3.71473,-19.21742 6.08169,-19.83197 10.604,-0.665201 13.94978,10.71444 11.7201,19.19801 -0.99689,3.793 -3.27524,7.79704 -7.22219,8.99584 M 133.15918,108.02 c -3.28164,1.45407 -1.50224,7.72167 2.14879,6.22722 3.20913,-1.31357 1.19416,-7.70845 -2.14879,-6.22722 m 0.92885,1.32422 c 1.69648,0.005 2.1097,3.57058 0.22837,3.5799 -1.85252,0.009 -2.07565,-3.58488 -0.22837,-3.5799 m -12.43984,6.33043 v 0.26459 l -3.43959,2.38125 3.43959,-2.64584 m 27.51667,0 v 0.26459 h -1.5875 l 1.5875,-0.26459 m 1.05833,0.26459 v 0.26458 h -0.79375 l 0.79375,-0.26458 m 0.52917,0.26458 1.5875,0.79375 v 0.26458 l -1.85209,-0.79375 0.26459,-0.26458 m -38.10001,5.82083 -0.26458,0.26459 0.26458,-0.26459 m 5.55625,0 -0.26458,0.26459 0.26458,-0.26459 m 7.9375,2.64584 v 0.26458 l -0.79375,0.26458 0.79375,-0.52916 m -12.43541,2.64583 v 0.26458 h -0.79375 l 0.79375,-0.26458 m 22.48958,2.64583 -0.26458,0.26459 0.26458,-0.26459 m -0.52917,0.26459 -0.26458,0.26458 0.26458,-0.26458 m -1.05833,0.35278 c 0.20462,0 0.0424,0.13172 -0.0882,0.0882 l 0.0882,-0.0882 m -0.52917,0.17638 v 0.26459 h -0.79375 l 0.79375,-0.26459 m -8.46666,0.26459 0.52916,0.26458 v 0.26458 l -0.52916,-0.52916 m 7.40833,0 v 0.26458 h -1.05833 l 1.05833,-0.26458 m -1.85208,0.26458 v 0.26458 h -2.38125 l 2.38125,-0.26458 m 8.46666,1.32292 1.05834,2.38125 -1.05834,-2.38125 m -9.78958,1.85208 c 0.14539,0.84042 0.10483,1.39593 -0.79375,1.5875 l 0.79375,-1.5875 m -3.43958,1.41111 c 0.20462,0 0.0424,0.13172 -0.0882,0.0882 l 0.0882,-0.0882 m -0.52917,0.17639 v 0.26458 l -0.79375,0.26459 0.79375,-0.52917 m 11.90625,0 -0.79375,1.5875 h -0.26458 l 1.05833,-1.5875 m -12.96458,2.38125 -0.26459,0.26458 z"
       id="path1" /></g></svg>
